<svg xmlns="http://www.w3.org/2000/svg" xmlns:xlink="http://www.w3.org/1999/xlink" viewBox="0 0 588.82 588.82"><defs><style>.cls-1{fill:url(#radial-gradient);}.cls-2{fill:#7b7b7b;}.cls-3{fill:#fff;}.cls-4{fill:url(#radial-gradient-2);}</style><radialGradient id="radial-gradient" cx="294.41" cy="294.41" r="294.41" gradientUnits="userSpaceOnUse"><stop offset="0" stop-color="#ebebeb"/><stop offset="0.47" stop-color="#e9e9e9"/><stop offset="0.64" stop-color="#e2e3e3"/><stop offset="0.76" stop-color="#d7d8d9"/><stop offset="0.85" stop-color="#c6c8c9"/><stop offset="0.87" stop-color="#c2c4c6"/><stop offset="0.89" stop-color="#b5b7b9"/><stop offset="0.92" stop-color="#929395"/><stop offset="0.96" stop-color="#656668"/><stop offset="0.97" stop-color="#88888a"/><stop offset="0.98" stop-color="#aaaaab"/><stop offset="0.99" stop-color="#bfbfc0"/><stop offset="1" stop-color="#c7c7c7"/></radialGradient><radialGradient id="radial-gradient-2" cx="292.44" cy="294.87" r="49.52" gradientUnits="userSpaceOnUse"><stop offset="0" stop-color="#ebebeb"/><stop offset="0.03" stop-color="#e7e7e7"/><stop offset="0.06" stop-color="#dcdcdc"/><stop offset="0.08" stop-color="#cfcfcf"/><stop offset="0.11" stop-color="#d3d3d3"/><stop offset="0.15" stop-color="#e1e1e1"/><stop offset="0.16" stop-color="#ebebeb"/><stop offset="0.19" stop-color="#e4e4e4"/><stop offset="0.22" stop-color="#d2d2d2"/><stop offset="0.23" stop-color="#c9c9c9"/><stop offset="0.27" stop-color="#bdbdbd"/><stop offset="0.35" stop-color="#9c9c9c"/><stop offset="0.36" stop-color="#969696"/><stop offset="0.5" stop-color="#ababab"/><stop offset="0.62" stop-color="#c4c6c8"/><stop offset="0.74" stop-color="#c2c4c6"/><stop offset="0.78" stop-color="#b6b7b9"/><stop offset="0.85" stop-color="#959595"/><stop offset="0.85" stop-color="#949494"/><stop offset="0.91" stop-color="#8d8d8d"/><stop offset="1" stop-color="#858585"/></radialGradient></defs><g id="Layer_2" data-name="Layer 2"><g id="timer"><path class="cls-1" d="M294.41,0C131.81,0,0,131.81,0,294.41S131.81,588.82,294.41,588.82,588.82,457,588.82,294.41,457,0,294.41,0Zm0,537.5c-134.25,0-243.09-108.84-243.09-243.09S160.16,51.32,294.41,51.32,537.5,160.16,537.5,294.41,428.66,537.5,294.41,537.5Z"/></g><g id="Layer_9" data-name="Layer 9"><path class="cls-2" d="M300.65,50.8,294,291.85l241.68,6.62C538.54,165.48,433.69,54.93,300.65,50.8Z"/></g><g id="All_ticks" data-name="All ticks"><path class="cls-3" d="M101.44,294.17c-12,0-24,.06-35.93-.06-1.8,0-4.79.78-4.72-2.42s3-2.2,4.8-2.17q35.63.6,71.24,1.4c1.87,0,4.75-.52,4.44,2.71-.27,2.81-2.89,1.67-4.52,1.68-11.77.08-23.54,0-35.31,0Z"/><path class="cls-3" d="M495.78,416.33c-.32.64-.51,1.58-1.09,2.06-1.24,1-2.31-.09-3.32-.67-7.81-4.51-15.67-9-23.38-13.64-12.81-7.8-25.53-15.75-38.27-23.67-1.79-1.11-4.91-1.92-2.92-4.89,1.73-2.6,3.83-.19,5.33.72,13,7.89,25.69,16.2,38.8,23.83,7.17,4.17,13.37,9.9,21.22,13C493.53,413.59,495.21,414.38,495.78,416.33Z"/><path class="cls-3" d="M163.82,215.75c-1.11,3.6-3.12,2.1-5.14.88q-18-10.9-36-21.78c-8.3-5-16.64-9.95-24.86-15.09-1.64-1-5-1.84-3.09-4.86s4-.12,5.62.86q30,18,59.81,36.18C161.66,212.86,163.75,213.29,163.82,215.75Z"/><path class="cls-3" d="M370.1,430.7c1.82.24,2.34,1.73,3,2.94q17.25,31.41,34.4,62.85c.83,1.51,2.5,3.37-.09,4.71-2.26,1.16-2.77-1.1-3.49-2.41q-17.37-31.65-34.63-63.36C368.4,433.78,366.71,431.68,370.1,430.7Z"/><path class="cls-3" d="M204.22,125.16c5.6,10.32,11.26,20.61,16.76,31,.91,1.71,3.53,4,.28,5.68-3.07,1.6-3.78-1.57-4.77-3.36-9.58-17.32-19.06-34.68-28.58-52-.25-.47-.51-.94-.77-1.4a2.84,2.84,0,0,0-.5-1.07l-.8-1.33,0,0a4.59,4.59,0,0,0-2.36-3.82c-.25-2.87-6.79-4.69-1.42-8.5.49.52.94.52,1.34-.1a3.82,3.82,0,0,1,3,2.33l.81,1.25.47,1.24.78,1.23.49,1.26.75,1.2.55,1.29.71,1.16c.52.85,1,1.7,1.57,2.55l.81,1.34a5.05,5.05,0,0,0,.47,1.15l.81,1.28c.17.4.35.8.52,1.19l.75,1.24,6.18,11.28A5.6,5.6,0,0,0,204.22,125.16Z"/><path class="cls-3" d="M175.05,496.35c-3-1.05-1.64-3-.76-4.45,4.39-7.46,8.89-14.85,13.35-22.27q11.63-19.32,23.27-38.64c1-1.68,2-4.36,4.54-2.91s.26,3.26-.62,4.71q-18.29,30.07-36.64,60.1C177.37,494.23,177,496,175.05,496.35Z"/><path class="cls-3" d="M160.91,371.16c-.3,2-1.72,2.6-3,3.27-21,11.28-41.57,23.28-63,33.75-1.79.87-3.7,2-4.77.2s1.17-2.63,2.57-3.4q31.11-17.06,62.24-34.07C156.92,369.87,159.25,367.75,160.91,371.16Z"/><path class="cls-3" d="M512.27,298.16q6.51.16,13,.31c2.12,0,4.5-.09,4.3,3-.2,2.81-2.56,2.16-4.3,2.12q-20.77-.42-41.53-.93c-9.92-.23-19.84-.4-29.75-.83-1.91-.08-5.33,1.11-5.26-2.48.08-4.09,3.66-2.39,5.74-2.39,13,0,26,.27,39.06.45a2.14,2.14,0,0,0,2.46.17l5,.16a8.26,8.26,0,0,0,5.06.26l3.54,0Z"/><path class="cls-3" d="M289.79,490c0-11.74-.05-23.47.06-35.2,0-1.79-.81-4.86,2.41-4.59,2.69.23,1.55,2.95,1.52,4.56-.45,22.66-1,45.32-1.54,68a3.84,3.84,0,0,1-.11,1.23c-.69,1.86,1,5.44-2.3,5.26-2.56-.15-1.54-3.34-1.55-5.25-.06-11.33,0-22.66,0-34Z"/><path class="cls-3" d="M205.11,80.14c1.11-.13,1.51,1.5,2,2.72,3.43,8.11,6.77,16.26,10.17,24.39.5,1.19,1.1,2.49-.32,3.21s-2.14-.67-2.6-1.75c-3.7-8.56-6.62-17.47-11.36-25.55C202,81.38,202.32,80.58,205.11,80.14Z"/><path class="cls-3" d="M527.53,326.18c-3.76,2.24-7.52.88-11.23.45-6.13-.7-12.24-1.59-18.36-2.4-1-.14-2.18-.32-2.28-1.58a1.37,1.37,0,0,1,1.48-1.57C507.28,322.63,517.64,323,527.53,326.18Z"/><path class="cls-3" d="M140.58,120c3.18-1.15,4.09.23,4.95,1.22Q154,131,162.36,140.82c.72.85,2,1.88.68,3.08-1,.85-1.91,0-2.58-.79C154,135.57,147.47,128,140.58,120Z"/><path class="cls-3" d="M179.3,131.45c-3.39-2.32-4.89-6-7.11-9-3.66-5-7-10.16-10.52-15.26-.68-1-1.73-2.08-.26-3.08a2.27,2.27,0,0,1,2.12.64c5.55,8.36,12.26,16,16.54,25.15C180.17,130.1,179.75,130.57,179.3,131.45Z"/><path class="cls-3" d="M488.34,362.84c8.73,3,17.64,6.1,26.53,9.23a1.71,1.71,0,0,1,1,2.48c-.4.95-1.22.89-2,.6q-13.31-4.75-26.62-9.51a1.5,1.5,0,0,1-1.09-1.9C486.45,362.68,487.34,362.83,488.34,362.84Z"/><path class="cls-3" d="M82.83,197.38c10.68,2.48,20.12,7.74,29.39,13.4A104.59,104.59,0,0,1,82.83,197.38Z"/><path class="cls-3" d="M133.66,176.2l-26.14-19.78C114.38,156.62,132.62,170.93,133.66,176.2Z"/><path class="cls-3" d="M492.42,342.53c10.39,1.93,20.79,3.86,30.95,6.85l-.57,2.56-31-6.95Z"/><path class="cls-3" d="M108.31,375.29c-9.08,5.4-18.44,10-28.77,12.27C88.23,381.34,98.36,378.44,108.31,375.29Z"/><path class="cls-3" d="M146.81,159.56c-7.42-6.87-14.5-13.39-21.51-20-.83-.79-1.89-2-.48-3.11,1-.82,1.88.22,2.6.89q9.88,9.34,19.72,18.72C147.84,156.76,147.69,157.55,146.81,159.56Z"/><path class="cls-3" d="M251.83,66.49c4,9.74,5,20.14,7,30.3a1.44,1.44,0,0,1-1.2,1.84c-1.68.13-1.95-1.34-2.16-2.45-1.42-7.49-2.86-15-4-22.52C251.07,71.39,250,69,251.83,66.49Z"/><path class="cls-3" d="M443.57,435.25,465.34,456c-.42.45-.85.89-1.28,1.34A258.93,258.93,0,0,1,442.2,436.6Z"/><path class="cls-3" d="M227.64,71.89c3,1,2.54,3.88,3.24,6,2.38,7.31,4.63,14.67,6.9,22,.37,1.18.85,2.63-.36,3.38-.95.59-2-.19-2.37-1.3-2.8-9.67-6.48-19.08-8.26-29C226.74,72.73,227.23,72.39,227.64,71.89Z"/><path class="cls-3" d="M71.25,363.29c9.25-2.73,18-7.16,28.36-5.92L72,365.66Z"/><path class="cls-3" d="M104.74,231c-4.59.41-7.64-1.52-10.83-2.51-5.64-1.75-10.93-4.62-17-4.75-1.94-.05-3.93-1.22-3.3-3.46.69-2.46,2.69-.88,4.06-.43,7.77,2.57,15.5,5.22,23.25,7.85A6,6,0,0,1,104.74,231Z"/><path class="cls-3" d="M479.65,438.88l-24.07-18.31,1.11-1.51c8.69,5.11,16.09,12.05,24.13,18.08Z"/><path class="cls-3" d="M280,89.72a29.85,29.85,0,0,1,0,4.07c-.18,1.22-1.2,1.48-2.32,1.37s-1-1-1-1.79c-.57-9-1.16-18-1.71-27-.07-1.15-.56-2.82,1-3.09,2.05-.37,2.09,1.58,2.21,2.92C278.75,74.16,279.37,82.14,280,89.72Z"/><path class="cls-3" d="M427.94,449.78l19.75,22.87L446.2,474l-19.78-22.66Z"/><path class="cls-3" d="M506.87,396.65c-11.24-.72-19.18-8.9-28.95-13C488.57,385.64,497.7,391.21,506.87,396.65Z"/><path class="cls-3" d="M63.08,267c7.72-.4,15.31,1.3,22.89,2.31,2.7.37,7.93-.77,7.69,2.32-.2,2.58-5.25.68-8.08.39-7.66-.77-15.28-1.86-22.91-2.82Z"/><path class="cls-3" d="M61.05,317.12c5.29-2.67,25.94-4.67,32.06-3.48C89.24,316.3,72.12,318.29,61.05,317.12Z"/><path class="cls-3" d="M67.28,242.66A231.83,231.83,0,0,1,97.2,249.5c-.18.77-.35,1.53-.52,2.3L66.83,245Z"/><path class="cls-3" d="M66.36,340.38c8-2.71,16.17-5.35,25-3.92C83.23,338.84,75.08,341,66.36,340.38Z"/><path class="cls-3" d="M160.91,371.16c-.3,2-1.72,2.6-3,3.27-21,11.28-41.57,23.28-63,33.75-1.79.87-3.7,2-4.77.2s1.17-2.63,2.57-3.4q31.11-17.06,62.24-34.07C156.92,369.87,159.25,367.75,160.91,371.16Z"/><path class="cls-3" d="M108.31,375.29c-9.08,5.4-18.44,10-28.77,12.27C88.23,381.34,98.36,378.44,108.31,375.29Z"/><path class="cls-3" d="M71.25,363.29c9.25-2.73,18-7.16,28.36-5.92L72,365.66Z"/><path class="cls-3" d="M61.05,317.12c5.29-2.67,25.94-4.67,32.06-3.48C89.24,316.3,72.12,318.29,61.05,317.12Z"/><path class="cls-3" d="M66.36,340.38c8-2.71,16.17-5.35,25-3.92C83.23,338.84,75.08,341,66.36,340.38Z"/><path class="cls-3" d="M128.77,413a125.28,125.28,0,0,1-22.12,15.2l-.88-1.29,21.86-15.29Z"/><path class="cls-3" d="M313.22,503.78,314.76,528l-2,.13q-.69-12.36-1.39-24.73Z"/><path class="cls-3" d="M268.84,509.33l-2-1.3c.53-3.37,1.07-6.74,1.6-10.1l1.44.05Z"/><path class="cls-3" d="M270.14,226.42l1.49.71c-1.1,1.45-2.56.9-4,.73C268.12,226.74,269.2,226.71,270.14,226.42Z"/><path class="cls-3" d="M216.64,429.25c.75,1.9-.2,3.11-.95,4.3-12.64,20.19-24.6,40.8-38,60.5-1.12,1.64-2.24,3.55-4,2.54s-.29-2.87.55-4.23q18.6-30.21,37.23-60.4C212.54,430.1,213.52,427.1,216.64,429.25Z"/><path class="cls-3" d="M173,458.87c-5.22,9.18-11.07,17.82-18.93,24.9C158.52,474.06,165.9,466.53,173,458.87Z"/><path class="cls-3" d="M134.84,466.77c6.68-6.94,12.13-15.14,21.71-19.18q-10,10.46-19.93,20.89Z"/><path class="cls-3" d="M103.13,431.7c3.27-4.93,20.22-16.89,26.14-18.88C127.22,417,113.32,427.24,103.13,431.7Z"/><path class="cls-3" d="M119.25,449.29c5.63-6.33,11.41-12.65,19.76-15.76C133.14,439.6,127.11,445.47,119.25,449.29Z"/><path class="cls-3" d="M293,449.72c1.62,1.25,1.42,2.77,1.4,4.17-.45,23.82-.09,47.65-1.46,71.45-.12,2-.09,4.2-2.16,4.26s-1.72-2.3-1.7-3.9q.38-35.48.81-71C289.88,452.56,289.17,449.49,293,449.72Z"/><path class="cls-3" d="M270.78,497.59c.26,10.56-.31,21-3.41,31.09C266.21,518.06,268.65,507.8,270.78,497.59Z"/><path class="cls-3" d="M242.15,524c2.16-9.4,2.6-19.23,8.74-27.62l-6.33,28.16Z"/><path class="cls-3" d="M196.91,510.27c.27-5.92,8.64-24.9,12.69-29.65C210,485.29,203.35,501.2,196.91,510.27Z"/><path class="cls-3" d="M219.79,517.05c1.56-8.33,3.26-16.73,8.82-23.69C226.71,501.59,224.56,509.72,219.79,517.05Z"/><path class="cls-3" d="M370.65,430.23c2,.29,2.6,1.72,3.26,2.95,11.27,21,23.25,41.6,33.7,63,.87,1.79,2,3.71.2,4.78s-2.63-1.17-3.4-2.58q-17-31.12-34-62.27C369.35,434.21,367.24,431.88,370.65,430.23Z"/><path class="cls-3" d="M374.73,482.83c5.4,9.08,10,18.44,12.25,28.78C380.77,502.91,377.88,492.78,374.73,482.83Z"/><path class="cls-3" d="M362.7,519.87c-2.72-9.24-7.14-18-5.9-28.36q4.14,13.83,8.27,27.66Z"/><path class="cls-3" d="M316.52,530c-2.66-5.28-4.65-25.93-3.45-32.06C315.73,501.84,317.7,519,316.52,530Z"/><path class="cls-3" d="M339.79,524.75c-2.71-8-5.33-16.18-3.9-25C338.26,507.88,340.36,516,339.79,524.75Z"/><path class="cls-3" d="M430.68,222.44c.33-2,1.76-2.57,3-3.22,21.15-10.95,41.93-22.62,63.51-32.75,1.8-.85,3.74-1.92,4.78-.13s-1.21,2.61-2.62,3.36Q468,206.26,436.58,222.78C434.65,223.8,432.28,225.88,430.68,222.44Z"/><path class="cls-3" d="M483.34,219.14c9.16-5.26,18.59-9.72,29-11.81C503.51,213.41,493.33,216.15,483.34,219.14Z"/><path class="cls-3" d="M520.2,231.72c-9.29,2.59-18.15,6.88-28.44,5.48l27.78-7.85Z"/><path class="cls-3" d="M529.67,278.05c-5.32,2.58-26,4.26-32.11,3C501.47,278.43,518.63,276.71,529.67,278.05Z"/><path class="cls-3" d="M524.74,254.71c-8.07,2.58-16.26,5.09-25,3.52C507.85,256,516,254,524.74,254.71Z"/><path class="cls-3" d="M375.38,166c-.77-1.9.18-3.11.92-4.3,12.49-20.28,24.3-41,37.58-60.79,1.11-1.65,2.21-3.56,4-2.57s.3,2.86-.52,4.23Q399,132.94,380.61,163.27C379.47,165.14,378.52,168.14,375.38,166Z"/><path class="cls-3" d="M418.82,136.07c5.15-9.23,10.93-17.9,18.74-25C433.16,120.77,425.84,128.36,418.82,136.07Z"/><path class="cls-3" d="M456.9,127.88c-6.63,7-12,15.23-21.57,19.34l19.77-21Z"/><path class="cls-3" d="M488.87,162.71c-3.24,5-20.1,17-26,19.08C464.89,177.56,478.71,167.25,488.87,162.71Z"/><path class="cls-3" d="M472.62,145.24C467,151.61,461.3,158,453,161.15,458.8,155,464.79,149.12,472.62,145.24Z"/><path class="cls-3" d="M298.57,143.29c-1.6-1.28-1.36-2.8-1.31-4.2,1-23.8,1.13-47.64,3-71.4.16-2,.19-4.19,2.26-4.21s1.66,2.34,1.61,3.94q-1.17,35.46-2.37,70.92C301.71,140.52,302.35,143.61,298.57,143.29Z"/><path class="cls-3" d="M321.8,95.92c0-10.56.77-21,4.09-31C326.81,75.56,324.15,85.76,321.8,95.92Z"/><path class="cls-3" d="M351,70.14c-2.36,9.35-3,19.17-9.34,27.42q3.48-14,7-28Z"/><path class="cls-3" d="M395.92,84.87c-.39,5.91-9.18,24.7-13.33,29.37C382.28,109.55,389.28,93.8,395.92,84.87Z"/><path class="cls-3" d="M373.2,77.59c-1.75,8.29-3.63,16.65-9.34,23.49C365.94,92.9,368.27,84.81,373.2,77.59Z"/></g><g id="Topper"><circle class="cls-4" cx="292.44" cy="294.87" r="49.52"/></g></g></svg>